<?xml version="1.0" encoding="UTF-8" standalone="no"?>
<svg
   viewBox="0 0 16 16"
   id="svg2"
   version="1.1"
   inkscape:version="1.2.2 (b0a8486541, 2022-12-01)"
   sodipodi:docname="recentbookmarks-dark.svg"
   inkscape:export-filename="recentbookmarks-dark-128px.png"
   inkscape:export-xdpi="768"
   inkscape:export-ydpi="768"
   xmlns:inkscape="http://www.inkscape.org/namespaces/inkscape"
   xmlns:sodipodi="http://sodipodi.sourceforge.net/DTD/sodipodi-0.dtd"
   xmlns="http://www.w3.org/2000/svg"
   xmlns:svg="http://www.w3.org/2000/svg"
   xmlns:rdf="http://www.w3.org/1999/02/22-rdf-syntax-ns#"
   xmlns:cc="http://creativecommons.org/ns#"
   xmlns:dc="http://purl.org/dc/elements/1.1/">
  <metadata
     id="metadata11">
    <rdf:RDF>
      <cc:Work
         rdf:about="">
        <dc:format>image/svg+xml</dc:format>
        <dc:type
           rdf:resource="http://purl.org/dc/dcmitype/StillImage" />
      </cc:Work>
    </rdf:RDF>
  </metadata>
  <sodipodi:namedview
     pagecolor="#ffffff"
     bordercolor="#666666"
     borderopacity="1"
     objecttolerance="10"
     gridtolerance="10"
     guidetolerance="10"
     inkscape:pageopacity="0"
     inkscape:pageshadow="2"
     inkscape:window-width="1920"
     inkscape:window-height="1018"
     id="namedview9"
     showgrid="false"
     inkscape:zoom="41.7193"
     inkscape:cx="7.1909164"
     inkscape:cy="10.091253"
     inkscape:window-x="0"
     inkscape:window-y="0"
     inkscape:window-maximized="1"
     inkscape:current-layer="g6"
     inkscape:showpageshadow="2"
     inkscape:pagecheckerboard="true"
     inkscape:deskcolor="#d1d1d1" />
  <g
     transform="translate(-421.71429,-531.79074)"
     id="g6">
    <path
       id="path4277"
       style="fill:#fbfbfe;fill-opacity:1;stroke:none"
       d="M 429.74359 532.79074 L 427.55609 537.38644 L 422.71429 538.11105 L 426.19281 541.7048 L 425.33929 546.7634 L 429.67718 544.38644 L 433.99163 546.79074 L 433.19281 541.72824 L 436.71429 538.15402 L 431.88031 537.40207 L 429.74359 532.79074 z M 429.71429 537.15012 C 429.99129 537.15012 430.21429 537.37312 430.21429 537.65012 L 430.21429 540.15012 L 432.71429 540.15012 C 432.99129 540.15012 433.21429 540.37312 433.21429 540.65012 C 433.21429 540.9271 432.99129 541.15012 432.71429 541.15012 L 429.71429 541.15012 C 429.43729 541.15012 429.21429 540.9271 429.21429 540.65012 L 429.21429 537.65012 C 429.21429 537.37312 429.43729 537.15012 429.71429 537.15012 z " />
  </g>
</svg>
